<svg xmlns="http://www.w3.org/2000/svg" viewBox="0 0 4096 2048" preserveAspectRatio="xMidYMid slice">
  <defs>
    <linearGradient id="sky" x1="0" y1="0" x2="0" y2="1">
      <stop offset="0%" stop-color="#0f172a" />
      <stop offset="40%" stop-color="#1d4ed8" />
      <stop offset="70%" stop-color="#1e3a8a" />
      <stop offset="100%" stop-color="#0f172a" />
    </linearGradient>
    <linearGradient id="ground" x1="0" y1="0" x2="1" y2="0">
      <stop offset="0%" stop-color="#065f46" />
      <stop offset="50%" stop-color="#0f766e" />
      <stop offset="100%" stop-color="#047857" />
    </linearGradient>
  </defs>
  <rect width="4096" height="1228" fill="url(#sky)" />
  <rect y="1228" width="4096" height="820" fill="url(#ground)" />
  <g fill="#fbbf24" opacity="0.9">
    <circle cx="3200" cy="460" r="180" />
    <circle cx="3180" cy="440" r="120" opacity="0.7" />
  </g>
  <g fill="#0f172a" opacity="0.4">
    <ellipse cx="600" cy="1300" rx="220" ry="120" />
    <ellipse cx="860" cy="1300" rx="240" ry="130" />
    <ellipse cx="1100" cy="1300" rx="210" ry="110" />
  </g>
  <g fill="#134e4a" opacity="0.85">
    <path d="M0 1500 C 240 1300, 480 1300, 720 1500 S 1200 1700, 1440 1500 S 1920 1300, 2160 1500 S 2640 1700, 2880 1500 S 3360 1300, 3600 1500 S 3840 1700, 4096 1500 L 4096 2048 L 0 2048 Z" />
  </g>
  <g fill="#22d3ee" opacity="0.4">
    <circle cx="600" cy="420" r="80" />
    <circle cx="680" cy="360" r="50" />
    <circle cx="700" cy="440" r="40" />
  </g>
</svg>
